<svg width="32" height="32" viewBox="0 0 32 32" fill="none" xmlns="http://www.w3.org/2000/svg">
<rect width="32" height="32" rx="6" fill="#293E56"/>
<path fill-rule="evenodd" clip-rule="evenodd" d="M16 6C21.523 6 26 10.477 26 16C26 19.27 24.423 22.17 21.977 24L21.6 23.58L15.6 16.8H13.6V19.8C13.6 20 13.5 20.15 13.35 20.27C13.2 20.38 13.05 20.38 12.9 20.27C12.75 20.15 12.67 20 12.67 19.8V11.1C12.67 10.93 12.73 10.8 12.84 10.7C12.95 10.6 13.08 10.55 13.25 10.55H16.7C17.37 10.55 17.95 10.64 18.46 10.82C18.96 10.99 19.38 11.23 19.72 11.54C20.05 11.84 20.31 12.2 20.47 12.6C20.64 13 20.73 13.43 20.73 13.89C20.73 14.41 20.63 14.88 20.43 15.3C20.24 15.71 19.94 16.06 19.53 16.33C19.13 16.61 18.61 16.8 17.98 16.91L22.5 21.8C24.36 19.81 25.5 17.05 25.5 16C25.5 10.75 21.25 6.5 16 6.5C10.75 6.5 6.5 10.75 6.5 16C6.5 21.25 10.75 25.5 16 25.5C16.73 25.5 17.43 25.42 18.1 25.26L18.97 26.21C17.39 26.62 16.73 26.69 16 26.69C10.06 26.69 5.31 21.94 5.31 16C5.31 10.06 10.06 5.31 16 5.31C21.94 5.31 26.69 10.06 26.69 16C26.69 19.27 25.11 22.17 22.67 24L21.977 24C24.423 22.17 26 19.27 26 16C26 10.477 21.523 6 16 6Z" fill="white"/>
</svg>
