<svg width="296" height="168" viewBox="0 0 296 168" fill="none" xmlns="http://www.w3.org/2000/svg">
<path fill-rule="evenodd" clip-rule="evenodd" d="M137.727 45.524H150.587C152.438 45.524 154.093 45.7814 155.54 46.2718C156.998 46.7499 158.237 47.4119 159.254 48.2823C160.272 49.1528 161.044 50.1458 161.583 51.2859C162.123 52.426 162.405 53.6397 162.417 54.9514C162.454 56.1529 162.245 57.2685 161.792 58.3105C161.351 59.3648 160.639 60.272 159.671 61.0689C158.703 61.8535 157.477 62.4787 155.969 62.92C154.449 63.3614 152.659 63.582 150.575 63.5943H137.715V45.524H137.727ZM148.245 20C170.753 20 189.008 38.2542 189.008 60.7624C189.008 73.7818 182.903 85.3792 173.402 92.8451L171.845 91.1656L171.783 91.1043L150.084 67.6154H137.739V79.9605C137.739 80.549 137.567 81.0148 137.249 81.3581C136.942 81.7136 136.562 81.9588 136.109 82.0691C135.655 82.1795 135.189 82.1917 134.735 82.0691C134.282 81.9466 133.902 81.7259 133.595 81.3826C133.277 81.0394 133.117 80.5858 133.105 80.0096V43.4767C133.105 42.8024 133.338 42.263 133.767 41.8707C134.196 41.4661 134.748 41.27 135.459 41.2577H150.538C153.296 41.2577 155.699 41.6255 157.783 42.3488C159.855 43.0599 161.583 44.0406 162.969 45.3033C164.354 46.5538 165.408 48.0126 166.095 49.6554C166.794 51.2982 167.149 53.0635 167.149 54.9392C167.149 57.0968 166.757 59.0093 165.948 60.7256C165.139 62.4296 163.913 63.8395 162.233 64.9673C160.554 66.1075 158.421 66.9043 155.809 67.3579L173.512 86.4825C180.193 79.936 184.337 70.8151 184.337 60.7256C184.337 40.8164 168.191 24.6708 148.282 24.6708C128.373 24.6708 112.215 40.8164 112.215 60.7256C112.215 80.6348 128.361 96.7926 148.282 96.7926C151.273 96.7926 154.179 96.4249 156.949 95.7383L160.554 99.6368C156.667 100.863 152.536 101.537 148.245 101.537C125.725 101.537 107.483 83.2828 107.483 60.7746C107.483 38.2664 125.737 20.0123 148.245 20.0123V20Z" fill="white"/>
<path d="M8.25572 130.077H14.4835C15.3784 130.077 16.1753 130.199 16.8863 130.432C17.5851 130.665 18.1981 130.984 18.6884 131.401C19.1788 131.818 19.5589 132.308 19.8163 132.86C20.0737 133.411 20.2086 134 20.2209 134.637C20.2331 135.214 20.135 135.765 19.9144 136.268C19.6937 136.783 19.3504 137.224 18.8846 137.604C18.4187 137.984 17.818 138.291 17.0947 138.499C16.3592 138.72 15.4887 138.818 14.4835 138.83H8.25572V130.065V130.077ZM14.2383 140.779L20.466 147.534C20.6745 147.743 20.8951 147.853 21.1281 147.89C21.361 147.927 21.5816 147.89 21.7901 147.792C21.9862 147.694 22.1456 147.559 22.2682 147.375C22.3785 147.191 22.4275 146.983 22.3908 146.75C22.3662 146.517 22.2314 146.284 22.0107 146.051L17.0089 140.657C18.2716 140.436 19.3014 140.044 20.1228 139.504C20.9319 138.953 21.5326 138.266 21.9249 137.445C22.3172 136.611 22.5011 135.692 22.5011 134.637C22.5011 133.73 22.3295 132.872 21.9862 132.075C21.6552 131.278 21.1403 130.58 20.466 129.967C19.7918 129.354 18.9581 128.875 17.9529 128.532C16.9476 128.177 15.783 128.005 14.4467 128.005H7.14012C6.79686 128.005 6.52715 128.103 6.31874 128.299C6.11033 128.495 6 128.753 6 129.084V146.786C6 147.068 6.08582 147.289 6.23293 147.448C6.38004 147.62 6.56393 147.73 6.7846 147.779C7.00527 147.841 7.22594 147.828 7.45886 147.779C7.67953 147.718 7.86342 147.608 8.01054 147.436C8.16991 147.265 8.24346 147.044 8.24346 146.762V140.779H14.226H14.2383ZM96.9767 138.928H108.574C108.832 138.928 109.04 138.855 109.187 138.72C109.334 138.585 109.444 138.426 109.481 138.229C109.53 138.033 109.53 137.837 109.481 137.641C109.432 137.445 109.322 137.285 109.175 137.151C109.028 137.016 108.832 136.954 108.574 136.942H96.9767V130.003H109.163C109.42 130.003 109.628 129.93 109.788 129.795C109.947 129.66 110.057 129.501 110.106 129.305C110.168 129.108 110.168 128.912 110.119 128.716C110.07 128.52 109.972 128.361 109.812 128.226C109.653 128.091 109.444 128.03 109.175 128.017H96.1553C95.8734 128.017 95.6159 128.079 95.4075 128.201C95.1991 128.324 95.0275 128.483 94.9171 128.679C94.8068 128.875 94.7455 129.096 94.7455 129.341V146.284C94.7455 146.541 94.8068 146.762 94.9171 146.958C95.0397 147.166 95.1991 147.326 95.4075 147.448C95.6159 147.571 95.8734 147.632 96.1553 147.632H109.138C109.432 147.632 109.665 147.559 109.837 147.424C109.996 147.289 110.106 147.117 110.156 146.921C110.205 146.725 110.192 146.517 110.131 146.308C110.07 146.112 109.947 145.941 109.775 145.806C109.616 145.671 109.395 145.597 109.138 145.597H96.9522V138.904L96.9767 138.928ZM189.866 147.166C190.05 147.522 190.27 147.743 190.54 147.853C190.81 147.951 191.067 147.951 191.325 147.828C191.582 147.718 191.778 147.534 191.938 147.252L200.826 129.268C200.912 128.986 200.912 128.741 200.826 128.532C200.74 128.324 200.605 128.152 200.409 128.03C200.213 127.907 200.004 127.833 199.784 127.809C199.563 127.784 199.342 127.833 199.146 127.931C198.95 128.03 198.791 128.213 198.693 128.471L190.945 144.2L183.013 128.41C182.878 128.152 182.706 127.956 182.498 127.87C182.277 127.772 182.057 127.735 181.824 127.76C181.591 127.797 181.382 127.882 181.186 128.017C181.002 128.152 180.868 128.336 180.794 128.557C180.72 128.777 180.745 129.01 180.855 129.28L189.866 147.179V147.166ZM280.683 148C281.738 148 282.755 147.841 283.724 147.522C284.692 147.203 285.599 146.75 286.421 146.149C287.242 145.548 287.965 144.825 288.591 143.967C289.204 143.109 289.694 142.14 290.025 141.061C290.368 139.982 290.54 138.793 290.552 137.506C290.552 136.231 290.331 135.054 289.902 133.951C289.473 132.848 288.885 131.879 288.125 131.009C287.365 130.15 286.47 129.439 285.452 128.875C284.435 128.312 283.319 127.944 282.13 127.748C281.59 127.686 281.051 127.65 280.524 127.65C279.984 127.65 279.433 127.674 278.869 127.748C277.643 127.944 276.527 128.336 275.522 128.912C274.529 129.488 273.659 130.224 272.935 131.094C272.212 131.965 271.66 132.946 271.28 134.037C270.9 135.128 270.704 136.28 270.692 137.494C270.692 138.806 270.864 140.007 271.207 141.098C271.538 142.189 272.004 143.158 272.617 144.016C273.23 144.862 273.953 145.585 274.774 146.173C275.608 146.762 276.527 147.215 277.52 147.522C278.526 147.828 279.58 147.988 280.696 147.988L280.683 148ZM279.175 129.832C280.034 129.709 280.928 129.709 281.86 129.832C282.816 129.991 283.675 130.298 284.471 130.751C285.256 131.205 285.93 131.769 286.494 132.467C287.07 133.154 287.499 133.939 287.806 134.809C288.112 135.679 288.272 136.623 288.272 137.616C288.272 138.916 288.063 140.068 287.671 141.098C287.279 142.116 286.739 142.986 286.041 143.697C285.342 144.408 284.545 144.947 283.625 145.328C282.706 145.695 281.725 145.891 280.683 145.891C279.592 145.891 278.575 145.695 277.655 145.315C276.723 144.935 275.914 144.384 275.216 143.66C274.517 142.937 273.977 142.067 273.597 141.049C273.217 140.031 273.009 138.891 273.009 137.629C273.009 136.219 273.266 134.968 273.781 133.877C274.284 132.786 274.995 131.891 275.914 131.192C276.846 130.506 277.925 130.052 279.175 129.856V129.832Z" fill="white"/>
</svg>
